<svg width="681" height="495" viewBox="0 0 681 495" fill="none" xmlns="http://www.w3.org/2000/svg">
<path opacity="0.55" d="M158.8 289.095C133.7 286.495 108.3 275.395 94.5 254.295C76 226.095 85.3 183.495 113.8 165.495C122.2 160.195 131.9 156.795 139.6 150.595C163.9 130.995 160.1 93.7945 168.1 63.6945C175.2 37.3945 194.1 13.5945 219.7 4.39455C245.3 -4.80545 277.1 2.79455 293.1 24.8945C297.2 30.5945 300.3 37.0945 305.3 41.9945C312.9 49.3945 323.9 52.1945 334.5 53.0945C364.6 55.7945 394.3 46.4945 423.9 39.9945C453.5 33.4945 485.8 30.1945 512.8 43.8945C539.8 57.5945 557 93.8945 540.7 119.395C537.2 124.895 532.4 129.495 528.2 134.595C519.7 144.995 513.6 159.695 519.9 171.595C525 181.095 536.1 185.295 545.9 189.995C566.6 199.895 584.6 215.495 597.5 234.595C609.4 252.295 616.8 275.195 609.3 295.095C605.7 304.695 598.8 312.795 591.4 319.895C583.5 327.495 574.6 334.295 564.4 338.495C536 350.395 503.2 340.595 476 326.295C448.8 311.995 423.5 292.995 393.8 284.995C362 276.495 328.2 281.495 295.8 287.495C285.6 289.395 274.9 291.295 264.4 290.695C253.2 289.995 245 283.495 234.7 282.095C211 278.895 183.9 291.695 158.8 289.095Z" fill="url(#paint0_linear)"/>
<path d="M164.4 461.094C256.3 462.894 348.1 468.094 439.9 472.594C452.6 473.194 465.2 473.794 477.9 474.394V396.494H41.6V461.194C82.5 460.194 123.5 460.294 164.4 461.094Z" fill="#3D5073"/>
<path d="M81.4 387.795C80.8 386.995 80.6 385.695 80.6 384.595C80.6 333.895 80.6 283.095 80.6 232.395C80.6 228.695 82.9 226.395 86.6 226.395C106.6 226.395 126.6 226.395 146.7 226.395C150.7 226.395 152.9 228.595 152.9 232.595C152.9 249.495 152.9 266.395 152.9 283.395C152.9 316.695 152.9 349.995 152.9 383.195C152.9 386.695 152 389.195 148.7 390.595C127.4 390.595 106.2 390.595 84.9 390.595C83.7 389.695 82.3 388.995 81.4 387.795ZM92.3 365.595C92.3 367.995 93.6 369.294 96 369.395C99.3 369.395 102.7 369.395 106 369.395C108.4 369.395 109.7 368.095 109.7 365.695C109.7 360.895 109.7 356.095 109.7 351.295C109.7 348.895 108.4 347.595 106 347.495C102.7 347.495 99.3 347.495 96 347.495C93.6 347.495 92.3 348.895 92.3 351.195C92.3 353.595 92.3 356.095 92.3 358.495C92.3 360.895 92.3 363.195 92.3 365.595ZM99.1 243.795C98 243.795 97.1 244.095 97.3 245.395C97.4 245.895 97.9 246.295 98.4 246.595C98.7 246.795 99.1 246.695 99.5 246.695C111.8 246.695 124.2 246.695 136.5 246.695C137.1 246.695 137.9 246.695 138.3 246.395C138.7 246.095 138.9 245.195 138.7 244.795C138.5 244.395 137.7 243.995 137.1 243.895C130.7 243.795 124.3 243.895 118 243.895C111.7 243.795 105.4 243.795 99.1 243.795ZM100.3 302.295C98.8 302.295 98.2 302.795 98.5 303.995C98.6 304.495 99.2 304.795 99.6 305.195C99.7 305.295 100.1 305.195 100.3 305.195C112.9 305.195 125.5 305.195 138 305.195C138.9 305.195 139.8 305.195 139.9 303.995C140 302.695 139.3 302.295 138.1 302.295C134.9 302.295 131.6 302.295 128.4 302.295C125.3 302.295 122.1 302.295 119 302.295C112.8 302.295 106.6 302.295 100.3 302.295ZM138.1 321.895C139.2 321.895 140.1 321.595 139.9 320.295C139.8 319.795 139.2 319.295 138.7 318.995C138.4 318.795 137.9 318.995 137.4 318.995C125.1 318.995 112.7 318.995 100.4 318.995C99.6 318.995 98.7 318.795 98.5 319.995C98.2 321.195 98.8 321.895 100.2 321.895C106.5 321.895 112.9 321.895 119.2 321.895C125.5 321.895 131.8 321.895 138.1 321.895ZM137.7 296.795C138.1 296.795 138.6 296.895 138.8 296.795C139.3 296.395 139.9 295.895 139.9 295.395C139.9 294.895 139.3 294.295 138.8 293.995C138.3 293.795 137.6 293.895 137 293.895C124.8 293.895 112.6 293.895 100.4 293.895C99.6 293.895 98.7 293.795 98.5 294.895C98.2 296.195 98.8 296.695 100.3 296.695C106.6 296.695 113 296.695 119.3 296.695C125.4 296.795 131.6 296.795 137.7 296.795ZM136.9 253.495C137.8 253.495 138.7 253.495 138.8 252.295C138.9 251.395 138.6 250.695 137.5 250.595C137.2 250.595 136.9 250.595 136.6 250.595C124.2 250.595 111.7 250.595 99.3 250.595C98.5 250.595 97.6 250.395 97.3 251.495C96.9 252.795 97.5 253.395 99.1 253.395C105.4 253.395 111.7 253.395 118 253.395C124.3 253.495 130.6 253.495 136.9 253.495ZM138.1 313.495C139 313.495 139.8 313.495 139.9 312.395C140 311.495 139.7 310.795 138.6 310.695C138.3 310.695 138 310.695 137.7 310.695C125.3 310.695 112.8 310.695 100.4 310.695C99.7 310.695 98.8 310.995 98.5 311.395C97.8 312.495 98.6 313.395 100 313.395C106.3 313.395 112.7 313.395 119 313.395C125.5 313.495 131.8 313.495 138.1 313.495ZM103.5 274.095C106.2 274.095 108.5 271.795 108.5 269.095C108.5 266.295 106.3 263.995 103.5 263.995C100.7 263.995 98.4 266.295 98.4 269.095C98.5 271.895 100.7 274.095 103.5 274.095Z" fill="#3D5073"/>
<path d="M355.2 350.895C354 353.495 352 354.295 349.2 354.295C324.6 354.195 300.1 354.295 275.5 354.295C274.9 354.295 274.3 354.295 273.5 354.295C274.1 362.295 274.8 369.995 275.4 377.895C276.1 377.895 276.6 377.895 277.1 377.895C285.3 377.895 293.5 377.895 301.7 377.895C305.5 377.895 305.7 378.094 305.7 381.895V381.995C305.7 383.695 305.2 384.195 303.6 384.395C303 384.495 302.5 384.395 301.9 384.395C274.4 384.395 247 384.395 219.5 384.395C219 384.395 218.5 384.395 218.1 384.395C216.2 384.294 215.6 383.695 215.6 381.695C215.6 381.095 215.6 380.595 215.6 379.995C215.5 378.795 216.2 378.094 217.3 377.895C217.9 377.794 218.6 377.695 219.3 377.695C227.3 377.695 235.2 377.695 243.2 377.695C243.7 377.695 244.2 377.695 244.9 377.695C245.5 369.795 246.1 362.095 246.8 354.095C246 354.095 245.4 354.095 244.8 354.095C220.2 354.095 195.7 354.095 171.1 354.095C167.3 354.095 165.1 352.495 165.1 348.195C165.2 309.695 165.1 271.195 165.1 232.795C165.1 232.195 165.1 231.695 165.1 231.095C165.2 228.895 166.9 227.195 169.1 226.995C169.7 226.895 289.8 226.995 349.3 226.895C352.1 226.895 354 227.795 355.1 230.395C355.2 270.595 355.2 310.695 355.2 350.895ZM350.4 233.195C290.2 233.195 230.1 233.195 169.9 233.195C169.9 271.495 169.9 309.595 169.9 347.895C230 347.895 290.2 347.895 350.4 347.895C350.4 309.695 350.4 271.495 350.4 233.195Z" fill="#3D5073"/>
<path d="M92.3 358.494C92.3 360.894 92.3 363.294 92.3 365.594C92.3 367.994 93.6 369.294 96 369.394C99.3 369.394 102.7 369.394 106 369.394C108.4 369.394 109.7 368.094 109.7 365.694C109.7 360.894 109.7 356.094 109.7 351.294C109.7 348.894 108.4 347.594 106 347.494C102.7 347.494 99.3 347.494 96 347.494C93.6 347.494 92.3 348.894 92.3 351.194C92.2 353.594 92.3 355.994 92.3 358.494Z" fill="#FACFBF"/>
<path d="M118 243.795C111.7 243.795 105.4 243.795 99.1 243.795C98 243.795 97.1 244.095 97.3 245.395C97.4 245.895 97.9 246.295 98.4 246.595C98.7 246.795 99.1 246.695 99.5 246.695C111.8 246.695 124.2 246.695 136.5 246.695C137.1 246.695 137.9 246.695 138.3 246.395C138.7 246.095 138.9 245.195 138.7 244.795C138.5 244.395 137.7 243.995 137.1 243.895C130.8 243.795 124.4 243.795 118 243.795Z" fill="#9AADCB"/>
<path d="M119 302.295C112.8 302.295 106.5 302.295 100.3 302.295C98.8 302.295 98.2 302.795 98.5 303.995C98.6 304.495 99.2 304.795 99.6 305.195C99.7 305.295 100.1 305.195 100.3 305.195C112.9 305.195 125.5 305.195 138 305.195C138.9 305.195 139.8 305.195 139.9 303.995C140 302.695 139.3 302.295 138.1 302.295C134.9 302.295 131.6 302.295 128.4 302.295C125.3 302.295 122.2 302.295 119 302.295Z" fill="#9AADCB"/>
<path d="M119.2 321.895C125.5 321.895 131.8 321.895 138.1 321.895C139.2 321.895 140.1 321.595 139.9 320.295C139.8 319.795 139.2 319.295 138.7 318.995C138.4 318.795 137.9 318.995 137.4 318.995C125.1 318.995 112.7 318.995 100.4 318.995C99.6 318.995 98.7 318.795 98.5 319.995C98.2 321.195 98.8 321.895 100.2 321.895C106.6 321.895 112.9 321.895 119.2 321.895Z" fill="#9AADCB"/>
<path d="M119.3 296.795C125.4 296.795 131.6 296.795 137.7 296.795C138.1 296.795 138.6 296.895 138.8 296.795C139.3 296.395 139.9 295.895 139.9 295.395C139.9 294.895 139.3 294.295 138.8 293.995C138.3 293.795 137.6 293.895 137 293.895C124.8 293.895 112.6 293.895 100.4 293.895C99.6 293.895 98.7 293.795 98.5 294.895C98.2 296.195 98.8 296.695 100.3 296.695C106.6 296.795 112.9 296.795 119.3 296.795Z" fill="#9AADCB"/>
<path d="M118 253.495C124.3 253.495 130.6 253.495 136.9 253.495C137.8 253.495 138.7 253.495 138.8 252.295C138.9 251.395 138.6 250.695 137.5 250.595C137.2 250.595 136.9 250.595 136.6 250.595C124.2 250.595 111.7 250.595 99.3 250.595C98.5 250.595 97.6 250.395 97.3 251.495C96.9 252.795 97.5 253.395 99.1 253.395C105.5 253.495 111.7 253.495 118 253.495Z" fill="#9AADCB"/>
<path d="M119.1 313.495C125.4 313.495 131.8 313.495 138.1 313.495C139 313.495 139.8 313.495 139.9 312.395C140 311.495 139.7 310.795 138.6 310.695C138.3 310.695 138 310.695 137.7 310.695C125.3 310.695 112.8 310.695 100.4 310.695C99.7 310.695 98.8 310.995 98.5 311.395C97.8 312.495 98.6 313.395 100 313.395C106.5 313.495 112.8 313.495 119.1 313.495Z" fill="#9AADCB"/>
<path d="M98.5 268.994C98.5 271.794 100.8 274.094 103.6 274.094C106.3 274.094 108.6 271.794 108.6 269.094C108.6 266.294 106.4 263.994 103.6 263.994C100.7 263.894 98.5 266.194 98.5 268.994Z" fill="#FACFBF"/>
<path d="M350.4 347.894C350.4 309.594 350.4 271.494 350.4 233.194C290.2 233.194 230.1 233.194 169.9 233.194C169.9 271.494 169.9 309.594 169.9 347.894C230 347.894 290.1 347.894 350.4 347.894Z" fill="#FACFBF"/>
<path d="M652.2 384.795H26.5V396.395H652.2V384.795Z" fill="#728CBD"/>
<path d="M41.6 461.195V396.495H26.5V461.595C31.5 461.395 36.6 461.295 41.6 461.195Z" fill="#728CBD"/>
<path d="M651.9 479.795V396.495H636.9V479.595C641.9 479.695 646.9 479.795 651.9 479.795Z" fill="#728CBD"/>
<path d="M493.1 475.095V396.495H478V474.395C483 474.595 488 474.895 493.1 475.095Z" fill="#728CBD"/>
<path d="M636.9 479.595V396.495H493.1V475.095C541 477.195 588.9 478.895 636.9 479.595Z" fill="#728CBD"/>
<path d="M636.9 479.595V462.295H493.1V474.995C541 477.195 588.9 478.895 636.9 479.595Z" fill="#3D5073"/>
<path d="M636.9 398.395H493.1V453.695H636.9V398.395Z" fill="#3D5073"/>
<path d="M566.1 433.995C569.911 433.995 573 430.906 573 427.095C573 423.285 569.911 420.195 566.1 420.195C562.289 420.195 559.2 423.285 559.2 427.095C559.2 430.906 562.289 433.995 566.1 433.995Z" fill="#728CBD"/>
<path d="M562.405 364.229L562.405 345.129L480.205 345.129L480.205 364.229L562.405 364.229Z" fill="#FF3F40"/>
<path d="M521.299 360.746L521.299 347.946L485.499 347.946L485.499 360.746L521.299 360.746Z" fill="white"/>
<path d="M488.7 359.294V349.294C488.7 349.294 488.7 349.194 488.6 349.194H488.5C488.5 349.194 488.4 349.194 488.4 349.294V359.294C488.4 359.294 488.4 359.394 488.5 359.394L488.7 359.294C488.7 359.394 488.7 359.294 488.7 359.294Z" fill="#B2A1A1"/>
<path d="M490.6 359.294V349.294C490.6 349.294 490.6 349.194 490.5 349.194H490.4C490.4 349.194 490.3 349.194 490.3 349.294V359.294C490.3 359.294 490.3 359.394 490.4 359.394L490.6 359.294C490.6 359.394 490.6 359.294 490.6 359.294Z" fill="#B2A1A1"/>
<path d="M492.6 359.294V349.294C492.6 349.294 492.6 349.194 492.5 349.194H492.4C492.4 349.194 492.3 349.194 492.3 349.294V359.294C492.3 359.294 492.3 359.394 492.4 359.394L492.6 359.294C492.6 359.394 492.6 359.294 492.6 359.294Z" fill="#B2A1A1"/>
<path d="M494.6 359.294V349.294C494.6 349.294 494.6 349.194 494.5 349.194H494.4C494.4 349.194 494.3 349.194 494.3 349.294V359.294C494.3 359.294 494.3 359.394 494.4 359.394L494.6 359.294C494.5 359.394 494.6 359.294 494.6 359.294Z" fill="#B2A1A1"/>
<path d="M496.5 359.294V349.294C496.5 349.294 496.5 349.194 496.4 349.194H496.3C496.3 349.194 496.2 349.194 496.2 349.294V359.294C496.2 359.294 496.2 359.394 496.3 359.394L496.5 359.294C496.5 359.394 496.5 359.294 496.5 359.294Z" fill="#B2A1A1"/>
<path d="M498.5 359.294V349.294C498.5 349.294 498.5 349.194 498.4 349.194H498.3C498.3 349.194 498.2 349.194 498.2 349.294V359.294C498.2 359.294 498.2 359.394 498.3 359.394L498.5 359.294C498.5 359.394 498.5 359.294 498.5 359.294Z" fill="#B2A1A1"/>
<path d="M500.9 359.294V349.294C500.9 349.294 500.9 349.194 500.8 349.194H500.7C500.7 349.194 500.6 349.194 500.6 349.294V359.294C500.6 359.294 500.6 359.394 500.7 359.394L500.9 359.294C500.9 359.394 500.9 359.294 500.9 359.294Z" fill="#B2A1A1"/>
<path d="M502.9 359.294V349.294C502.9 349.294 502.9 349.194 502.8 349.194H502.7C502.7 349.194 502.6 349.194 502.6 349.294V359.294C502.6 359.294 502.6 359.394 502.7 359.394L502.9 359.294C502.9 359.394 502.9 359.294 502.9 359.294Z" fill="#B2A1A1"/>
<path d="M504.9 359.294V349.294C504.9 349.294 504.9 349.194 504.8 349.194H504.7C504.7 349.194 504.6 349.194 504.6 349.294V359.294C504.6 359.294 504.6 359.394 504.7 359.394L504.9 359.294C504.8 359.394 504.9 359.294 504.9 359.294Z" fill="#B2A1A1"/>
<path d="M562.642 383.963L562.642 364.863L480.442 364.863L480.442 383.963L562.642 383.963Z" fill="#962F42"/>
<path d="M521.537 380.482L521.537 367.682L485.737 367.682L485.737 380.482L521.537 380.482Z" fill="white"/>
<path d="M488.8 378.995V368.995C488.8 368.995 488.8 368.895 488.7 368.895H488.6C488.6 368.895 488.5 368.895 488.5 368.995V378.995C488.5 378.995 488.5 379.095 488.6 379.095L488.8 378.995C488.8 379.095 488.8 378.995 488.8 378.995Z" fill="#B2A1A1"/>
<path d="M490.8 378.995V368.995C490.8 368.995 490.8 368.895 490.7 368.895H490.6C490.6 368.895 490.5 368.895 490.5 368.995V378.995C490.5 378.995 490.5 379.095 490.6 379.095L490.8 378.995C490.8 379.095 490.8 378.995 490.8 378.995Z" fill="#B2A1A1"/>
<path d="M492.8 378.995V368.995C492.8 368.995 492.8 368.895 492.7 368.895H492.6C492.6 368.895 492.5 368.895 492.5 368.995V378.995C492.5 378.995 492.5 379.095 492.6 379.095L492.8 378.995C492.7 379.095 492.8 378.995 492.8 378.995Z" fill="#B2A1A1"/>
<path d="M494.7 378.995V368.995C494.7 368.995 494.7 368.895 494.6 368.895H494.5C494.5 368.895 494.4 368.895 494.4 368.995V378.995C494.4 378.995 494.4 379.095 494.5 379.095L494.7 378.995C494.7 379.095 494.7 378.995 494.7 378.995Z" fill="#B2A1A1"/>
<path d="M496.7 378.995V368.995C496.7 368.995 496.7 368.895 496.6 368.895H496.5C496.5 368.895 496.4 368.895 496.4 368.995V378.995C496.4 378.995 496.4 379.095 496.5 379.095L496.7 378.995C496.7 379.095 496.7 378.995 496.7 378.995Z" fill="#B2A1A1"/>
<path d="M498.6 378.995V368.995C498.6 368.995 498.6 368.895 498.5 368.895H498.4C498.4 368.895 498.3 368.895 498.3 368.995V378.995C498.3 378.995 498.3 379.095 498.4 379.095L498.6 378.995C498.6 379.095 498.6 378.995 498.6 378.995Z" fill="#B2A1A1"/>
<path d="M501.1 378.995V368.995C501.1 368.995 501.1 368.895 501 368.895H500.9C500.9 368.895 500.8 368.895 500.8 368.995V378.995C500.8 378.995 500.8 379.095 500.9 379.095L501.1 378.995C501.1 379.095 501.1 378.995 501.1 378.995Z" fill="#B2A1A1"/>
<path d="M503.1 378.995V368.995C503.1 368.995 503.1 368.895 503 368.895H502.9C502.9 368.895 502.8 368.895 502.8 368.995V378.995C502.8 378.995 502.8 379.095 502.9 379.095L503.1 378.995C503 379.095 503.1 378.995 503.1 378.995Z" fill="#B2A1A1"/>
<path d="M505 378.995V368.995C505 368.995 505 368.895 504.9 368.895H504.8C504.8 368.895 504.7 368.895 504.7 368.995V378.995C504.7 378.995 504.7 379.095 504.8 379.095L505 378.995C505 379.095 505 378.995 505 378.995Z" fill="#B2A1A1"/>
<path d="M203.7 370.294C203.4 372.994 203.3 376.094 205.1 378.194C206.8 380.094 209.6 380.494 212.1 380.794C220.5 381.694 229.6 382.394 236.7 377.694C238.7 376.394 240.3 374.694 242 373.094C246.7 368.394 251.4 363.694 256.2 358.994C258.1 357.094 260.1 355.094 261.3 352.694C263.6 348.194 262.9 342.494 260.5 337.994C258.1 333.494 254.3 329.894 250.3 326.794C237 316.594 228 311.894 218.4 327.494C210.4 340.494 205.4 355.294 203.7 370.294Z" fill="#F8A383"/>
<path d="M204 376.295C204.2 376.995 204.6 377.695 205.1 378.295C206.8 380.195 209.6 380.595 212.1 380.895C220.5 381.795 229.6 382.495 236.7 377.795C238.7 376.495 240.3 374.795 242 373.195C246.7 368.495 251.4 363.795 256.2 359.095C258.1 357.195 260.1 355.195 261.3 352.795C263.3 348.895 263 344.195 261.4 340.095C247.6 359.995 228.5 376.395 204 376.295Z" fill="#F8A383"/>
<path d="M438.7 376.094C438.4 378.794 437.8 381.894 435.5 383.494C433.4 384.994 430.6 384.694 428.1 384.394C419.7 383.394 410.7 381.994 404.9 375.794C403.3 374.094 402 372.094 400.8 370.094C397.3 364.494 393.7 358.794 390.2 353.194C388.8 350.894 387.3 348.494 386.7 345.894C385.5 340.894 387.5 335.594 390.8 331.794C394.1 327.894 398.7 325.394 403.3 323.294C418.6 316.394 428.4 313.794 434.2 331.294C438.9 345.494 440.4 361.094 438.7 376.094Z" fill="#F8A383"/>
<path d="M437 381.794C436.6 382.394 436.1 382.994 435.5 383.494C433.4 384.994 430.6 384.694 428.1 384.394C419.7 383.394 410.7 381.994 404.9 375.794C403.3 374.094 402 372.094 400.8 370.094C397.3 364.494 393.7 358.794 390.2 353.194C388.8 350.894 387.3 348.494 386.7 345.894C385.7 341.594 387 337.094 389.5 333.494C398.2 355.994 413 376.394 437 381.794Z" fill="#F8A383"/>
<path d="M242.9 317.094C240.1 319.294 237.4 321.594 234.6 323.794C236.3 323.394 238 323.094 239.7 322.794L244 316.994C243.6 317.094 243.2 317.094 242.9 317.094Z" fill="#192B50"/>
<path d="M234.2 365.695C234.4 369.395 235.6 372.895 236.3 376.495C238.4 387.095 236.3 397.895 236 408.695C235.7 419.595 237.3 430.495 239.2 441.295C240.5 448.595 241.9 455.995 243.1 463.395C263.3 464.095 283.5 464.995 303.7 465.895C306 450.395 308.4 434.995 310.7 419.495C310.7 419.695 310.7 419.995 310.8 420.195C311.1 418.195 311.3 416.295 311.6 414.295C313.5 401.395 317 388.595 317.4 375.595C317.9 356.895 315.7 338.095 317.8 319.595C291.6 319.495 265.3 318.095 239.8 322.795L237.9 325.395C242.3 330.795 241.5 338.795 239.3 345.495C237 352.095 233.8 358.695 234.2 365.695Z" fill="#192B50"/>
<path d="M236 408.695C236 409.795 236 410.895 236 412.095C240.1 415.995 245.1 418.995 250.5 420.695C248.4 418.095 246 415.595 244.1 413.695C242.3 411.895 240.5 410.095 238.5 408.295C237.7 407.895 236.9 407.495 236 407.095C236.1 407.595 236.1 408.195 236 408.695Z" fill="#3D5073"/>
<path d="M286 380.195C280.1 377.195 273.9 374.695 267.9 371.895C260.6 368.395 254.3 363.295 247 359.795C243.3 357.995 239.6 356.595 235.7 355.595C235.5 356.395 235.2 357.195 235 357.995C238 361.295 241.6 363.895 245.5 365.995C246.4 365.695 247.3 365.795 248.4 366.195C260.7 370.795 271.8 377.595 284.9 380.095C285.3 380.195 285.8 380.295 286.2 380.395C286.2 380.295 286.1 380.195 286 380.195Z" fill="#3D5073"/>
<path d="M289 350.194C280.6 346.494 271.1 344.594 262.2 343.694C254.9 342.894 247.3 342.494 239.8 343.394C239.7 343.594 239.7 343.794 239.6 344.094C256.3 345.694 272.2 352.994 289 350.194Z" fill="#3D5073"/>
<path d="M296.9 369.394C290.8 365.794 283.5 364.794 276.4 364.494C283.3 367.594 290.3 370.394 296.7 374.394C299.8 376.394 303.3 378.894 305.5 382.094C304.4 376.994 301.9 372.394 296.9 369.394Z" fill="#3D5073"/>
<path d="M251.6 379.995C245.9 377.595 240.2 374.995 235.2 371.595C235.4 372.395 235.6 373.195 235.8 373.995C235.9 374.095 235.9 374.095 236 374.195C245.6 385.895 260.6 389.195 274.6 393.295C268.8 386.495 259.5 383.295 251.6 379.995Z" fill="#3D5073"/>
<path d="M254.3 446.995C260.1 450.495 266.5 453.295 272.4 456.595C268.6 450.795 263.6 445.995 257.9 441.995C256.5 441.695 255.5 440.995 254.8 439.995C249.4 436.695 243.6 433.995 237.7 431.895C238 434.295 238.4 436.595 238.8 438.995C244.3 440.995 249.5 444.095 254.3 446.995Z" fill="#3D5073"/>
<path d="M291.5 465.395C295.8 460.195 300 454.795 304.1 449.195C304.8 448.295 305.6 447.695 306.6 447.295C306.9 444.995 307.3 442.695 307.6 440.395C307.1 439.895 306.8 439.195 306.6 438.395C306.4 437.595 306.2 436.795 306.1 436.095C304.3 438.495 302.5 440.795 300.7 443.195C297 450.395 294 457.895 290.8 465.395C291 465.295 291.3 465.395 291.5 465.395Z" fill="#3D5073"/>
<path d="M283.1 429.094C289.3 427.094 294.4 423.494 298.9 418.994C291.6 422.294 284.7 426.294 277.4 429.494C275.9 430.094 274.4 430.694 272.9 431.194C276.3 430.794 279.8 430.194 283.1 429.094Z" fill="#3D5073"/>
<path d="M237.2 389.295C237.2 390.895 237.1 392.595 237 394.195C239.7 395.895 242.3 397.795 244.7 399.895C254.7 404.695 265.4 408.295 276.1 404.395C262.9 400.295 248.5 397.295 237.2 389.295Z" fill="#3D5073"/>
<path d="M239.3 406.794C238.2 405.694 237.2 404.394 236.4 402.994C236.3 404.594 236.2 406.094 236.2 407.694C237 407.094 238.2 406.794 239.3 406.794Z" fill="#12203D"/>
<path d="M245.8 434.394C250.4 434.894 255.3 432.194 259.8 431.294C261.1 430.994 262.2 431.194 263.1 431.694C263.5 431.194 264 430.594 264.4 430.094C254 429.694 241.8 427.194 236.2 418.194C236.4 420.694 236.6 423.294 236.9 425.794C239.3 429.194 241.6 433.994 245.8 434.394Z" fill="#12203D"/>
<path d="M261.9 464.094C267.7 451.494 273.7 439.294 282.5 429.194C281 429.394 279.6 429.494 278.1 429.694C277.9 430.594 277.5 431.594 276.6 432.494C273.1 436.094 269.9 439.894 267.1 443.994C263.5 450.094 261.2 456.994 259.3 464.094C260.2 464.094 261.1 464.094 261.9 464.094Z" fill="#12203D"/>
<path d="M300.8 408.895C291.1 415.795 276.5 416.995 265.1 416.295C258 415.895 250.2 414.395 244.1 410.695C247 420.195 261.9 420.095 269.7 419.895C280 419.595 290.9 418.095 300.6 414.395C306.3 412.295 309.3 420.895 304.6 423.795C292.6 431.195 284.9 441.895 278.6 453.595C284.3 447.295 289.8 440.795 294.6 433.795C298.3 428.395 307.2 433.495 303.5 438.995C301.9 441.295 300.3 443.595 298.5 445.795C299.8 447.195 300.3 449.395 299 451.595C296.3 456.195 293.9 460.995 291.2 465.495C293.6 465.595 295.9 465.695 298.3 465.795C301.4 462.895 304 459.595 305.4 455.795C307.2 443.795 309 431.795 310.8 419.695C310.8 419.895 310.8 420.195 310.9 420.395C311.2 418.395 311.4 416.495 311.7 414.495C313.1 405.295 315.2 396.095 316.5 386.795C315.1 386.295 313.9 385.295 313.3 383.695C310.6 376.495 297.6 376.395 291.4 376.295C288.2 376.295 284.9 376.395 281.6 376.795C288 378.595 294.6 379.695 301.3 380.195C303.1 380.295 304.4 381.195 305.2 382.295C307.7 384.395 308.4 388.595 304.7 390.495C288.2 398.895 264.1 404.695 245.4 398.295C249.2 405.395 262 406.195 268.7 406.295C277.6 406.395 288.4 405.495 295.8 400.195C301 396.095 306.1 404.995 300.8 408.895Z" fill="#12203D"/>
<path d="M249.6 383.795C244.9 383.295 240.6 382.195 236.9 380.395C237.1 382.395 237.2 384.395 237.2 386.395C238.7 385.095 240.8 384.495 243 385.795C251.3 390.695 261.8 390.595 271.1 389.495C274.1 389.095 277.2 388.595 280.2 387.995C272 382.295 258.9 384.795 249.6 383.795Z" fill="#12203D"/>
<path d="M235.2 357.494C234.9 358.594 234.7 359.694 234.5 360.794C243.9 368.594 253.1 369.094 264.5 365.294C266.6 364.594 268.6 363.894 270.6 363.194C266 362.994 261.5 362.894 257.2 362.494C250 361.694 242 360.594 235.2 357.494Z" fill="#12203D"/>
<path d="M316.8 341.395C307.3 341.895 297.6 342.495 288.4 344.295C282.4 345.495 277 348.195 271.5 350.595C286.6 353.295 301.9 349.095 316.9 346.995C316.9 345.195 316.9 343.295 316.8 341.395Z" fill="#12203D"/>
<path d="M416.9 315.294C419.7 317.494 422.4 319.794 425.2 321.994C423.5 321.594 421.8 321.294 420.1 320.994L415.8 315.194C416.1 315.294 416.5 315.294 416.9 315.294Z" fill="#192B50"/>
<path d="M342.4 373.894C342.8 386.894 346.3 399.694 348.2 412.594C348.5 414.594 348.7 416.495 349 418.495C349 418.295 349 417.994 349.1 417.794C351.6 434.694 354.2 451.595 356.7 468.495C376.2 469.495 395.8 470.494 415.3 471.394C416.5 460.694 418.7 450.095 420.5 439.495C422.4 428.695 424 417.794 423.7 406.894C423.4 396.094 421.3 385.295 423.4 374.695C424.1 371.095 425.3 367.594 425.5 363.894C425.9 356.894 422.7 350.294 420.6 343.594C418.5 336.894 417.6 328.995 422 323.495L420.1 320.894C394.5 316.194 368.2 317.694 342.1 317.694C344.1 336.294 341.9 355.094 342.4 373.894Z" fill="#192B50"/>
<path d="M423.7 406.895C423.7 407.995 423.7 409.095 423.7 410.295C419.6 414.195 414.6 417.195 409.2 418.895C411.3 416.295 413.7 413.795 415.6 411.895C417.4 410.095 419.2 408.295 421.2 406.495C422 406.095 422.8 405.695 423.7 405.295C423.7 405.795 423.7 406.295 423.7 406.895Z" fill="#3D5073"/>
<path d="M373.7 378.395C379.6 375.395 385.8 372.895 391.8 370.095C399.1 366.595 405.4 361.495 412.7 357.995C416.4 356.195 420.1 354.795 424 353.795C424.2 354.595 424.5 355.395 424.7 356.195C421.7 359.495 418.1 362.095 414.2 364.195C413.3 363.895 412.4 363.995 411.3 364.395C399 368.995 387.9 375.795 374.8 378.295C374.4 378.395 373.9 378.495 373.5 378.595C373.6 378.495 373.7 378.395 373.7 378.395Z" fill="#3D5073"/>
<path d="M370.8 348.395C379.2 344.695 388.7 342.795 397.6 341.895C404.9 341.095 412.5 340.695 420 341.595C420.1 341.795 420.1 341.995 420.2 342.295C403.5 343.895 387.6 351.195 370.8 348.395Z" fill="#3D5073"/>
<path d="M362.8 367.594C368.9 363.994 376.2 362.994 383.3 362.694C376.4 365.794 369.4 368.594 363 372.594C359.9 374.594 356.4 377.094 354.2 380.294C355.4 375.194 357.9 370.594 362.8 367.594Z" fill="#3D5073"/>
<path d="M408.2 378.094C413.9 375.694 419.6 373.094 424.6 369.694C424.4 370.494 424.2 371.294 424 372.094C423.9 372.194 423.9 372.194 423.8 372.294C414.2 383.994 399.2 387.294 385.2 391.394C391 384.694 400.2 381.494 408.2 378.094Z" fill="#3D5073"/>
<path d="M405.5 445.195C399.7 448.695 393.3 451.495 387.4 454.795C391.2 448.995 396.2 444.195 401.9 440.195C403.3 439.895 404.3 439.195 405 438.195C410.4 434.895 416.2 432.195 422.1 430.095C421.8 432.495 421.4 434.795 421 437.195C415.5 439.195 410.3 442.295 405.5 445.195Z" fill="#3D5073"/>
<path d="M353.2 436.494C353.4 435.694 353.6 434.894 353.7 434.194C355.5 436.594 357.3 438.894 359.1 441.294C363.1 448.994 366.3 457.194 369.7 465.294C364.8 459.594 360.2 453.594 355.6 447.294C354.9 446.394 354.1 445.794 353.1 445.394C352.8 443.094 352.4 440.794 352.1 438.494C352.7 437.994 353 437.394 353.2 436.494Z" fill="#3D5073"/>
<path d="M376.6 427.294C370.4 425.294 365.3 421.694 360.8 417.194C368.1 420.494 375 424.494 382.3 427.694C383.8 428.294 385.3 428.894 386.8 429.394C383.5 428.994 380 428.294 376.6 427.294Z" fill="#3D5073"/>
<path d="M422.6 387.495C422.6 389.095 422.7 390.795 422.8 392.395C420.1 394.095 417.5 395.995 415.1 398.095C405.1 402.895 394.4 406.495 383.7 402.595C396.9 398.495 411.3 395.495 422.6 387.495Z" fill="#3D5073"/>
<path d="M420.5 404.994C421.6 403.894 422.6 402.594 423.4 401.194C423.5 402.794 423.6 404.294 423.6 405.894C422.7 405.294 421.6 404.994 420.5 404.994Z" fill="#12203D"/>
<path d="M414 432.595C409.4 433.095 404.5 430.395 400 429.495C398.7 429.195 397.6 429.395 396.7 429.895C396.3 429.395 395.8 428.795 395.4 428.295C405.8 427.895 418 425.395 423.6 416.395C423.4 418.895 423.2 421.495 422.9 423.995C420.5 427.395 418.1 432.195 414 432.595Z" fill="#12203D"/>
<path d="M401.3 470.695C401.7 470.695 402 470.695 402.4 470.795C402.4 470.495 402.4 470.295 402.3 469.995C400 460.295 397.5 450.495 392.6 442.095C389.8 437.995 386.6 434.195 383.1 430.595C382.2 429.695 381.7 428.695 381.6 427.795C380.1 427.695 378.7 427.495 377.2 427.295C387.4 439.195 393.9 453.895 400.8 468.695C401.1 469.495 401.3 470.095 401.3 470.695Z" fill="#12203D"/>
<path d="M349 418.494C349 418.294 349 417.994 349.1 417.794C350.9 429.794 352.7 441.794 354.5 453.894C356.9 460.294 362.5 465.294 368.4 469.094C369.8 469.194 371.1 469.194 372.5 469.294C367.9 463.194 364.8 456.194 360.9 449.694C359.6 447.494 360.1 445.394 361.4 443.894C359.7 441.694 358 439.394 356.4 437.094C352.7 431.594 361.6 426.494 365.3 431.894C370.1 438.894 375.6 445.394 381.3 451.694C375 439.994 367.3 429.294 355.3 421.894C350.6 418.994 353.6 410.394 359.3 412.494C369 416.194 379.9 417.794 390.2 417.994C398.1 418.194 412.9 418.294 415.8 408.794C409.7 412.494 401.9 413.994 394.8 414.394C383.3 415.094 368.7 413.894 359.1 406.994C353.8 403.194 358.9 394.294 364.3 398.094C371.8 403.394 382.6 404.294 391.4 404.194C398.2 404.094 410.9 403.394 414.7 396.194C396 402.694 371.9 396.894 355.4 388.394C351.7 386.494 352.4 382.294 354.9 380.194C355.7 379.094 357 378.194 358.8 378.094C365.5 377.594 372.1 376.494 378.5 374.694C375.2 374.394 371.9 374.194 368.7 374.194C362.6 374.194 349.5 374.394 346.8 381.594C346.2 383.294 345 384.294 343.6 384.694C344.9 393.994 347.1 403.194 348.4 412.394C348.5 414.494 348.7 416.494 349 418.494Z" fill="#12203D"/>
<path d="M410.2 381.995C414.9 381.495 419.2 380.395 422.9 378.595C422.7 380.595 422.6 382.595 422.6 384.595C421.1 383.295 419 382.695 416.8 383.995C408.5 388.895 398 388.795 388.7 387.695C385.7 387.295 382.6 386.795 379.6 386.195C387.8 380.495 400.8 382.995 410.2 381.995Z" fill="#12203D"/>
<path d="M424.6 355.694C424.9 356.794 425.1 357.894 425.3 358.994C415.9 366.794 406.7 367.294 395.3 363.494C393.2 362.794 391.2 362.094 389.2 361.394C393.8 361.194 398.3 361.094 402.6 360.694C409.8 359.894 417.8 358.794 424.6 355.694Z" fill="#12203D"/>
<path d="M342.9 339.595C352.4 340.095 362.1 340.695 371.3 342.495C377.3 343.695 382.7 346.395 388.2 348.795C373.1 351.495 357.8 347.295 342.8 345.195C342.9 343.395 342.9 341.495 342.9 339.595Z" fill="#12203D"/>
<path d="M309.3 209.794C309.1 208.994 308.8 208.194 308.1 207.694C307.4 207.194 307.1 209.794 306.1 208.194C306.1 197.594 300.1 188.094 301.6 185.794C303.6 182.694 305.1 185.494 306.8 185.394C306 180.794 305.4 175.694 308.1 171.994C310.6 168.494 315.3 167.294 319.6 166.694C333.3 164.794 348.1 166.294 359.7 173.994C365 177.494 369.9 183.394 368.6 189.594C370.4 188.494 374.3 186.394 374.7 188.494C375.5 193.194 369.9 198.594 368 204.494C367.2 206.994 366 211.894 363.8 210.594C361.5 215.994 359.2 221.494 358.3 227.294C357.4 233.094 358 239.294 361.2 244.194C359.6 241.694 344.8 241.594 341.8 241.294C334.7 240.594 327.6 240.294 320.6 240.394C318.5 240.394 314.7 241.394 313.2 239.594C312.1 238.194 313.1 231.794 313 229.894C312.5 223.194 311.3 216.394 309.3 209.794Z" fill="#F8A383"/>
<path d="M305.9 192.894C306.6 194.794 307.1 196.694 307.3 198.794C307.6 201.094 306.3 204.894 307.2 206.994C307.4 207.394 307.5 207.694 307.5 208.094C307.7 207.894 307.8 207.794 308 207.894C308.5 208.194 308.7 208.694 308.9 209.194C309.1 208.794 309.4 208.394 309.6 207.994C309.6 207.894 309.7 207.894 309.7 207.894C309.7 207.894 309.7 207.894 309.7 207.794C309.8 207.394 310 206.994 310.1 206.594C310.3 205.794 310.7 205.194 311.2 204.694C309.6 201.994 309 198.694 308.6 195.294C308.3 192.894 308.3 190.394 307.8 187.994C307.7 187.194 307.5 186.194 307.1 185.394C307 185.394 307 185.394 306.9 185.394C306.8 185.394 306.7 185.394 306.6 185.394C306.6 185.494 306.6 185.594 306.6 185.694C306 185.794 305.4 185.394 304.8 185.094C304.5 185.594 304 186.094 303.4 186.394C303.7 187.194 303.9 188.094 304.1 188.894C304.8 190.094 305.4 191.494 305.9 192.894Z" fill="#F8A383"/>
<path d="M369.8 188.994C369.6 189.094 369.4 189.194 369.2 189.294C367.1 192.394 367.4 195.994 366 199.994C364.6 203.994 363.7 207.294 364.3 210.794C365.5 210.994 366.3 209.594 367 207.794C367.4 204.494 368.3 201.194 369.7 197.694C369.2 198.894 370.1 196.594 370.2 196.394C370.5 195.594 370.7 194.794 370.9 193.994C371.2 192.994 371.2 191.594 371.6 190.594C370.7 190.394 370.1 189.794 369.8 188.994Z" fill="#F8A383"/>
<path d="M307.2 190.794C304.5 182.794 304.1 174.094 306.2 165.894C307.1 162.294 308.5 158.694 311.2 156.094C310.5 156.094 309.9 155.994 309.2 155.994C313.5 151.194 319.1 147.594 325.2 145.794C324.2 145.794 323.1 145.694 322.1 145.694C328.7 144.394 335.5 143.994 342.1 144.494C342 143.294 341.1 142.194 339.9 141.994C347.3 140.394 355.5 143.794 359.8 149.994C359.3 149.394 360.7 149.294 361.2 149.794C364.1 152.894 367 155.994 369.9 159.094C369.3 158.594 368.3 159.094 368.1 159.894C367.9 160.594 368.2 161.394 368.5 162.194C370.1 166.094 371.7 170.094 373.3 173.994C372.4 179.094 372.2 184.194 372.6 189.294C371.5 189.194 370.5 189.394 369.5 189.794C367.1 196.694 364.8 203.594 362.4 210.594C361.9 209.894 361.3 209.094 360.8 208.394C359.1 211.694 357.3 215.094 355.6 218.394C354.6 217.794 354.5 216.294 355.3 215.494C353.7 218.094 351.6 220.394 349.3 222.394C349.7 221.694 350 220.994 350.4 220.294C349 220.994 347.8 221.894 346.8 223.094C347 222.394 347.2 221.694 347.4 220.894C345.5 221.894 343.6 223.094 341.8 224.394C341.9 223.694 342.2 222.994 342.6 222.394C342 222.694 341.4 223.094 340.7 223.394C341 222.494 341.3 221.694 341.6 220.794C340.4 221.494 339.2 222.094 338 222.794C338.6 221.594 339.2 220.494 339.8 219.294C338.9 219.694 337.9 219.994 337 220.394C337.2 219.594 337.4 218.794 337.5 217.994C336.2 218.694 334.9 219.294 333.6 219.994C332.3 219.294 332 217.394 332.9 216.394C331.6 216.994 330.4 217.794 329.4 218.694C330 218.894 330 217.794 329.5 217.594C328.9 217.494 328.4 217.894 328 218.294C327.6 218.694 326.9 218.994 326.4 218.694C326.7 217.794 327 216.794 327.3 215.894C326.6 216.494 325.8 216.994 324.9 217.194C324.9 216.394 325.2 215.594 325.7 214.994C324.9 215.494 324.1 215.994 323.4 216.394C323 215.594 322.9 214.694 322.9 213.794C321.8 213.994 320.7 214.494 319.8 215.194C320.3 214.394 318.8 213.494 318.4 214.294C317.9 212.994 317.5 211.594 317.4 210.194C317 210.694 316.7 211.194 316.3 211.794C316.5 211.494 315.8 209.794 315.7 209.394C311.3 212.894 312.2 206.894 312.1 204.894C311.8 200.194 308.7 195.294 307.2 190.794Z" fill="#252E55"/>
<path d="M423.1 282.994C423.2 276.094 423.1 270.294 419.4 264.394C416.9 260.494 414.2 256.794 411.8 252.894C404.9 249.494 396.8 248.394 389.3 250.094C388 250.394 386.7 250.794 385.4 250.694C384.2 250.694 383.1 250.294 382 249.994C377.2 248.694 373.1 248.594 368.1 248.794C366.1 244.894 364 240.994 362 237.094C361.3 235.794 360.6 234.394 359.4 233.494C358.2 232.594 356.7 232.094 355.3 231.794C341.1 228.194 326.1 227.894 311.8 230.894C310.8 231.094 309.8 231.294 309 231.894C305.3 234.494 308 241.294 304.5 244.194C303.3 245.294 301.5 245.494 299.9 245.494C293 245.394 285.6 241.794 279.6 245.194C278.8 245.694 278.1 246.194 277.2 246.394C275 246.894 273.1 244.994 271 244.194C267.3 242.894 263.8 245.194 260.2 247.194C259.8 247.994 259.3 248.794 258.6 249.594C249.5 259.294 240 268.794 236.4 281.894C237.9 283.294 238.9 285.394 238.7 288.194C238.4 293.994 238.3 299.794 237.8 305.494C243.3 306.894 248.9 308.194 254.5 309.094C258.2 317.294 261.1 326.094 263.1 334.894C263.9 338.394 264.7 341.994 264.9 345.694C265.1 349.894 264.4 354.094 263.9 358.294C262.7 369.794 263.2 381.494 265.6 392.894C266.5 397.294 267.7 401.894 266.9 406.294C266.4 408.794 265.3 411.094 264.9 413.494C264.1 417.394 264.9 421.494 264.4 425.494C263.4 433.494 257.2 441.494 260.3 448.894C258.4 452.094 257.6 456.894 260.5 459.194C261.7 460.194 263.4 460.294 265 460.294C275.6 460.394 285.9 457.094 295.9 453.494C301 451.694 306.4 449.694 311.8 450.294C316.6 450.794 321 453.294 325.3 455.594C333.1 459.794 341.2 463.894 349.9 465.394C358.6 466.894 368.2 465.694 375.2 460.194C377.4 458.494 379.3 456.394 381.8 455.094C384.3 453.794 387.7 453.694 389.6 455.694C390.5 456.594 391 457.894 391.9 458.894C395 462.094 400.4 459.394 403.9 456.594C403.1 449.094 402.3 441.594 401.5 434.094C400.5 424.594 399.5 415.094 400.2 405.594C401.2 392.994 404.9 379.294 398.5 368.494C397.2 366.294 395.4 364.194 394.9 361.594C394.2 357.794 396.6 354.294 398.1 350.794C400.8 344.594 401.1 337.794 402.3 331.094C403.5 324.494 405.7 317.594 411.1 313.494C413.6 315.294 416 316.694 419 315.894C420.1 315.594 421 314.894 422.1 314.694C422.4 314.594 422.7 314.594 423 314.594C422.4 303.994 422.9 293.594 423.1 282.994Z" fill="#F8C88D"/>
<path d="M271.7 333.694C280 335.994 292.2 339.094 301.3 336.094C296.9 335.694 292.5 334.894 288.3 333.894C280.4 331.994 270.6 328.494 269.7 319.194C269.4 316.094 273 313.894 275.7 314.594C283.4 316.794 292.9 315.394 300 310.794C301 308.694 302.1 306.594 303.3 304.594C301.6 306.094 299.7 307.494 297.7 308.594C293.1 311.194 288.1 312.294 282.9 312.494C278.2 312.694 272.6 312.294 268.2 310.194C266.2 312.094 262.5 312.094 260.8 309.294C256.8 302.494 257.3 295.194 256.6 287.894C253.7 279.594 249.4 271.694 246 263.494C245.3 264.394 244.6 265.394 243.9 266.294C244 269.594 244.9 273.094 245.6 276.194C246.9 276.594 248 277.594 248.5 279.294C250.1 284.594 251.7 290.194 251.4 295.794C251.2 299.994 250 303.994 248.4 307.794C250.4 308.194 252.4 308.594 254.4 308.894C258.1 317.094 261 325.894 263 334.694C263.8 338.194 264.6 341.794 264.8 345.494C265 349.694 264.3 353.894 263.8 358.094C262.6 369.594 263.1 381.294 265.5 392.694C265.9 394.694 266.4 396.794 266.7 398.894C267.4 397.094 269.5 395.794 271.4 395.794C270.4 392.094 270 388.194 270.7 383.794C270.9 382.094 272.3 380.994 273.9 380.594C272.2 377.094 271.2 373.394 271.4 369.194C271.5 366.194 274.3 363.794 277.4 364.594C284.2 366.494 290.8 369.294 297.5 371.694C292.9 368.994 287.9 366.894 283.4 364.494C273 358.794 265.9 350.494 265.5 338.294C265.6 335.194 268.8 332.894 271.7 333.694Z" fill="#BE9767"/>
<path d="M276.6 437.493C271.7 427.493 268.2 416.793 267 405.693C267 405.793 267 405.993 266.9 406.093C266.4 408.593 265.3 410.893 264.9 413.293C264.4 415.793 264.5 418.293 264.6 420.893C266.3 423.993 268.3 427.093 270.3 429.893C272 432.293 274.1 435.193 276.6 437.493Z" fill="#BE9767"/>
<path d="M400.8 458.594C399.1 458.094 397.3 457.594 395.6 456.994C395.5 457.094 395.4 457.094 395.3 457.194C396.6 457.994 397.8 458.694 399 459.394C399.7 459.194 400.2 458.894 400.8 458.594Z" fill="#BE9767"/>
<path d="M360.8 433.994C349.2 435.594 337.6 437.794 325.8 437.894C314.7 437.994 304.3 434.794 294.4 429.994C294.3 429.894 294.2 429.894 294.1 429.794C290.7 430.094 287.6 429.294 284.8 427.794C290.9 432.794 298.1 435.694 306 437.494C315.4 439.494 325.5 440.894 335.1 440.494C354.2 439.794 373.9 429.394 392.4 437.994C383.7 432.494 369.7 432.794 360.8 433.994Z" fill="#BE9767"/>
<path d="M361.3 413.493C351.2 417.393 339.5 421.693 328.7 417.393C319.2 413.493 313.8 403.393 307.4 395.993C302.6 390.493 294 379.793 285.6 381.893C288 385.193 290.8 388.293 293.1 391.393V391.493C297.7 395.093 301.3 399.993 304.7 404.893C309.2 411.493 313.5 418.993 320.9 422.593C330.4 427.293 342.5 424.793 352.1 421.593C359.3 419.193 365.8 415.693 369.9 409.993C367 411.293 364 412.493 361.3 413.493Z" fill="#BE9767"/>
<path d="M342 400.994C335.3 400.594 328.6 397.894 322.5 395.394C321.5 394.994 320.4 394.494 319.4 393.994C322.7 402.194 338.6 403.994 345.7 403.794C352.2 403.594 357.9 400.594 362.5 396.194C356.2 399.794 348.7 401.494 342 400.994Z" fill="#BE9767"/>
<path d="M290.7 357.593C288.6 356.093 286.4 354.793 284.2 353.693C286.2 355.093 288.4 356.393 290.7 357.593Z" fill="#BE9767"/>
<path d="M325.1 384.394C322.5 383.394 320 381.994 317.6 380.394C317.6 381.094 317.5 381.794 317.3 382.494C320.2 384.494 323.8 385.994 326.7 387.094C331.1 388.894 336.1 390.894 340.9 391.594C348.7 392.594 359.6 389.494 364.1 382.394C351.7 387.394 337 388.994 325.1 384.394Z" fill="#BE9767"/>
<path d="M392.7 393.894C396.2 386.594 399.4 376.294 398 367.594C397 366.094 396 364.594 395.4 362.894C395.3 362.994 395.1 363.094 395 363.094C394.4 371.294 393.4 379.294 391.3 387.194C389.3 394.494 385.8 401.194 383.6 408.394C387.6 404.394 390.2 398.994 392.7 393.894Z" fill="#BE9767"/>
<path d="M400.1 414.594C400 411.594 400.1 408.494 400.3 405.494C400.5 403.194 400.8 400.794 401 398.394C397.9 404.994 394.2 411.794 388.6 416.594C386.7 418.194 384.7 419.494 382.6 420.594C388.9 421.094 395.3 418.694 400.1 414.594Z" fill="#BE9767"/>
<path d="M400.7 425.594C398.5 426.794 396.2 427.794 393.8 428.494C396.7 429.994 399.3 431.894 401.6 434.094V433.994C401.3 431.194 401 428.394 400.7 425.594Z" fill="#BE9767"/>
<path d="M370.7 350.894C365.9 354.794 360.9 358.394 355.7 361.694C354.9 364.094 352.8 364.894 350.8 364.694C345.4 367.794 339.8 370.594 334.1 372.894C349.4 374.694 365.2 365.394 376.9 356.494C384.6 350.594 391.4 343.594 396.4 335.194C399.8 329.394 400.7 323.794 400.8 317.894C392.8 330.494 382.3 341.594 370.7 350.894Z" fill="#BE9767"/>
<path d="M336.4 359.494C343.2 352.894 337.5 338.094 334.2 331.094C331.6 325.494 329 319.894 325.9 314.594C323.9 311.294 321.3 306.494 317.7 304.094C317.6 304.394 317.5 304.694 317.3 304.994C326.4 321.794 340.9 340.594 336.4 359.494Z" fill="#BE9767"/>
<path d="M331.8 304.494C331.3 304.394 330.9 304.294 330.4 304.094C331.5 305.694 332.5 307.294 333.5 308.794C337.3 315.094 340.4 321.794 343.5 328.494C346.1 334.094 348.4 341.394 348.8 348.394C350.5 336.194 349.6 323.294 342.5 313.094C339.7 309.294 336 306.594 331.8 304.494Z" fill="#BE9767"/>
<path d="M362.5 296.794C373.5 296.594 388.3 295.094 396.8 286.994C385.2 293.194 371.7 294.594 358.6 294.594C349.3 294.594 339.9 294.594 330.6 293.994C331.8 294.494 333 294.994 334.1 295.494C336.9 296.194 340 296.394 342.2 296.594C349 297.194 355.8 296.894 362.5 296.794Z" fill="#BE9767"/>
<path d="M350.5 306.393C358.8 312.493 368.7 314.193 378.9 311.393C384.1 309.993 397.8 305.593 397 298.193C387.2 304.093 374.5 306.093 363.1 306.193C359 306.293 354.8 306.393 350.5 306.393Z" fill="#BE9767"/>
<path d="M383.4 319.994C377.3 321.894 371.2 322.494 365.3 321.894C366.2 322.294 367 322.994 367.6 323.894C369.7 324.594 371.9 324.794 374.4 324.394C377.3 323.894 384.3 322.494 385.6 319.294C384.8 319.494 384.1 319.694 383.4 319.994Z" fill="#BE9767"/>
<path d="M422.8 310.294C421 310.494 419.2 309.794 418.4 307.994C416.6 303.894 415.6 299.894 415.2 295.894C412.8 299.694 410.9 303.694 410 307.894C410.1 309.994 410.2 311.994 410.3 314.094C410.6 313.894 410.8 313.594 411.1 313.394C413.6 315.194 416 316.594 419 315.794C420.1 315.494 421 314.794 422.1 314.594C422.4 314.494 422.7 314.494 423 314.494C422.9 313.094 422.9 311.694 422.8 310.294Z" fill="#BE9767"/>
<path d="M289.5 298.194C285.3 299.694 281 299.594 276.7 298.594C273.8 297.894 271 296.794 268.5 295.194C268.6 295.694 268.7 296.094 268.8 296.594C269.8 297.394 270.5 298.494 270.6 300.094C270.9 304.194 283.7 303.194 286.3 302.794C293 301.794 297.9 297.094 302.8 292.594C298.2 293.094 293.8 296.594 289.5 298.194Z" fill="#BE9767"/>
<path d="M275.3 272.394C270.9 269.494 266.8 265.994 263.1 262.194C260.7 259.694 258.3 256.794 256.2 253.594C255.8 253.894 255.4 254.194 254.9 254.394C255 254.494 255 254.494 255.1 254.594C256.5 255.794 256.9 257.294 256.5 258.694C258.6 261.294 260.1 264.394 261.3 267.494C269.6 274.294 282.4 284.394 293.9 282.694C288.7 279.594 283.1 277.094 277.8 273.994C276.7 273.794 275.8 273.194 275.3 272.394Z" fill="#BE9767"/>
<path d="M286.4 245.194C286.2 244.694 286 244.094 285.7 243.594C283.6 243.594 281.5 243.994 279.6 245.094C278.8 245.594 278.1 246.094 277.2 246.294C277 246.294 276.9 246.394 276.7 246.394C279.4 251.994 280.6 258.494 279.9 263.694C279.9 263.794 279.9 263.794 279.9 263.894C280.1 263.994 280.3 264.094 280.4 264.194C284.5 262.994 286.8 258.694 287.3 254.094C286.8 251.194 286.5 248.194 286.4 245.194Z" fill="#BE9767"/>
<path d="M307 248.994C305.8 248.894 304.7 248.394 303.8 247.594C303.8 254.394 304.2 261.294 308.7 266.794C311.8 270.594 317.1 275.194 322.5 276.994C316.7 267.994 309.7 259.694 307.3 249.194C307.2 249.094 307.1 249.094 307 248.994Z" fill="#BE9767"/>
<path d="M340.4 259.794C334.3 259.594 328.8 256.594 322.9 254.394C323.8 262.994 333.8 263.694 340.4 259.794Z" fill="#BE9767"/>
<path d="M373.3 262.794C372.9 263.994 371.8 264.894 370.2 265.194C363.5 266.294 359.3 272.194 353.4 275.094C349.9 276.794 346.2 277.594 342.5 277.794C342.4 278.094 342.3 278.394 342.1 278.794C344.5 278.794 346.9 278.494 349.3 278.294C353.3 277.794 357.3 277.394 361.1 276.294C368.2 274.294 374.8 270.494 373.8 262.794C373.6 262.794 373.5 262.794 373.3 262.794Z" fill="#BE9767"/>
<path d="M350.3 250.193C350.9 250.193 351.5 250.293 352 250.493C352.6 249.893 353.2 249.493 354 249.293C355.2 248.893 356.5 249.193 357.6 249.793C358.5 250.293 359.3 251.293 359.7 252.293C359.7 252.093 359.8 251.893 359.8 251.693C360.1 250.493 361 249.493 362 248.893C362.7 248.493 363.5 248.293 364.4 248.293C362.4 245.493 360.5 245.093 356.3 245.593C351.5 246.093 346.9 247.493 342.1 247.293C340.8 247.293 339.6 246.593 338.8 245.693C338.2 245.493 337.6 245.093 337.1 244.693C334.9 245.893 332.6 246.793 330.2 247.593C335.2 249.793 340.3 251.593 345.9 249.393C347.8 248.493 349.3 249.093 350.3 250.193Z" fill="#BE9767"/>
<path d="M359.9 257.594C359.7 257.194 359.5 256.794 359.4 256.294C358.7 257.194 358 258.094 357.2 258.894C356.7 259.394 356.1 259.894 355.5 260.394C354.5 261.394 353.2 261.794 352 261.694C350.2 264.194 347.8 266.294 345.2 267.794C347.9 267.194 350.6 266.094 353.1 264.194C355.1 262.794 356.9 261.294 358.9 259.994C359.1 259.194 359.5 258.394 360 257.794C359.9 257.694 359.9 257.594 359.9 257.594Z" fill="#BE9767"/>
<path d="M387.6 273.894C391.2 271.994 394.7 269.894 398 267.594C394.2 269.194 390.8 271.194 387.6 273.894Z" fill="#BE9767"/>
<path d="M266.9 452.393C265.4 451.793 264 451.193 262.6 450.393C260.1 449.093 259.8 446.693 260.7 444.693C260.3 443.993 259.9 443.393 259.5 442.693C259.3 444.693 259.5 446.793 260.3 448.693C258.4 451.893 257.6 456.693 260.5 458.993C261.7 459.993 263.4 460.093 265 460.093C269.3 460.093 273.5 459.593 277.7 458.793C273.7 457.593 270 455.293 266.9 452.393Z" fill="#BE9767"/>
<path d="M242.9 296.593C241.5 297.093 239.7 296.993 238.4 296.193C238.3 298.193 238.2 300.193 238.1 302.193C238.4 303.393 238.6 304.593 238.9 305.693C240.1 305.993 241.4 306.293 242.6 306.593C244.7 303.993 244.2 300.293 242.9 296.593Z" fill="#BE9767"/>
<path d="M249.8 259.093C249.3 262.093 249 264.993 250.6 267.993C250.9 268.493 251.2 269.093 251.5 269.593C251.9 267.393 252.4 265.193 252.6 262.993C252.6 262.593 252.7 262.293 252.8 261.893C252.9 259.793 252.9 257.793 253 255.693C251.8 256.793 250.8 257.893 249.8 259.093Z" fill="#BE9767"/>
<path d="M290.4 265.694C290.6 265.994 290.7 266.294 290.8 266.594C291.4 268.294 292.5 269.694 293.8 270.694C295.2 271.194 296.7 271.594 298.2 271.994C297.6 271.394 297.1 270.694 296.6 269.994C294.9 267.494 293.7 264.594 293.1 261.594C292.7 260.894 292.5 260.094 292.5 259.194C292.5 256.394 293.8 246.194 289.5 245.794C288.9 245.694 288.4 245.594 287.9 245.394C290.7 251.894 291.8 258.794 290.4 265.694Z" fill="#BE9767"/>
<path d="M286.7 278.694C288 278.994 289.3 279.394 290.7 279.694C290.4 279.494 290 279.294 289.7 279.094C287.2 278.294 284.8 277.394 282.4 276.494C277.6 274.594 273.1 272.394 269.6 268.594C269.3 268.294 269 267.894 268.7 267.494C272.2 273.494 278.7 276.594 286.7 278.694Z" fill="#BE9767"/>
<path d="M305.8 246.294C305.2 245.994 304.7 245.694 304.1 245.394C303.4 251.794 300.4 258.594 304 264.294C306.1 267.594 309.7 269.594 313.5 271.094C306.6 264.294 301.9 256.294 305.8 246.294Z" fill="#BE9767"/>
<path d="M323.1 267.394C322.2 265.694 320.9 264.094 319.9 262.494C317.8 259.094 316.7 255.594 316.7 251.894C316.3 251.994 316 251.994 315.7 252.094C315 252.294 314.4 252.294 313.8 252.294C313 258.194 318.1 263.294 323.1 267.394Z" fill="#BE9767"/>
<path d="M344.7 277.994C344 278.594 343.2 279.194 342.4 279.794C343.5 279.894 344.5 279.994 345.6 280.094C345.1 279.494 344.8 278.794 344.7 277.994Z" fill="#BE9767"/>
<path d="M359.4 248.494C358.1 254.594 358.3 260.994 357.5 267.194C361.3 261.694 362.3 254.994 359.4 248.494Z" fill="#BE9767"/>
<path d="M376 260.693C378.7 257.293 380.1 253.093 378.1 249.193C375.9 248.893 373.9 248.693 371.7 248.693C374 252.593 375.4 256.493 376 260.693Z" fill="#BE9767"/>
<path d="M388.7 261.794C389.3 261.394 390 260.894 390.5 260.394C392 258.894 395.1 253.994 394 251.594C393.8 251.194 394.2 251.494 393.2 251.294C392 251.094 390.5 251.594 389.3 251.894C389.1 251.994 388.8 252.094 388.6 252.094C388.7 255.794 387.7 259.494 385.8 262.794C386.8 262.494 387.8 262.194 388.7 261.794Z" fill="#BE9767"/>
<path d="M412.1 253.794C412.1 258.394 411 262.794 408.9 266.794C409.3 266.994 409.7 267.294 410 267.594C412.7 263.694 413.2 258.394 412.1 253.794Z" fill="#BE9767"/>
<path d="M402.4 327.894C401.7 328.994 401 329.994 400.3 330.994C400.4 332.094 400 333.294 399 334.394C397.9 335.594 396.7 336.594 395.4 337.494C395.1 337.794 394.8 338.194 394.6 338.494C386.4 348.494 374.4 354.294 365.4 363.494C373.7 360.794 381.2 356.394 387.4 349.994C391 346.294 394.6 342.494 397.9 338.594C399.2 336.994 400.8 335.194 402.1 333.194C402.2 332.494 402.3 331.894 402.4 331.194C402.6 330.094 402.8 328.994 403.1 327.794C402.9 327.794 402.7 327.794 402.4 327.894Z" fill="#BE9767"/>
<path d="M287.1 332.894C293.4 333.494 299.8 333.494 306 332.194C308.8 331.594 312.5 330.694 314.9 328.994C302.4 327.394 289.6 329.494 277.2 326.694C272.1 325.594 266.5 324.394 261.4 322.394C265.7 330.194 279.7 332.194 287.1 332.894Z" fill="#BE9767"/>
<path d="M333.9 314.994C330.8 308.794 324.9 302.994 318 300.794C320.8 303.894 323.2 307.294 325.5 310.694C330.8 318.594 335.2 327.194 338.2 336.094C340.1 341.494 341.2 347.094 341.8 352.794C341.7 349.794 341.5 346.694 341.2 343.694C340.2 333.994 338.2 323.794 333.9 314.994Z" fill="#BE9767"/>
<path d="M327.1 340.294C327.8 342.194 329.2 343.694 330.8 344.894C330.4 343.194 329.9 341.394 329.4 339.694C328.5 336.894 327.4 334.194 326.2 331.594C326.1 334.494 326.1 337.594 327.1 340.294Z" fill="#BE9767"/>
<path d="M324.9 355.094C320.4 349.794 312.5 345.594 305.2 345.894C307.7 347.594 310.1 349.394 312.6 351.294C319.2 356.294 325.5 361.794 330.2 368.194C329.5 363.394 328.1 358.894 324.9 355.094Z" fill="#BE9767"/>
<path d="M272.2 346.494C275.8 349.894 281.9 350.794 286.5 352.194C293.6 354.394 299.1 357.194 304.5 362.294C309.6 367.094 314.3 372.294 319.7 376.894C321.9 378.694 324.6 381.094 327.5 382.194C323.1 370.594 311.6 362.294 301.9 355.194C296.1 350.894 289.8 347.094 282.7 345.794C278 344.994 273 344.794 268.9 342.594C269.9 343.994 271 345.394 272.2 346.494Z" fill="#BE9767"/>
<path d="M359.9 396.294C356.2 402.194 351.6 407.394 346.4 411.994C354.6 406.994 361 399.994 366.2 390.994C369.6 385.094 372.5 379.094 375.3 372.994C366.8 375.494 364.1 389.694 359.9 396.294Z" fill="#BE9767"/>
<path d="M311.9 391.494C306.8 384.994 301 378.094 294.2 373.294C289.2 369.794 283.4 366.894 277.5 365.094C274.6 364.194 269.8 362.694 266.6 363.894C285.1 367.494 302.8 381.594 312.5 396.894C315.9 402.294 319.4 407.794 323.6 412.594C324.4 413.494 325.2 414.494 326.1 415.394C326.6 415.094 327.1 414.694 327.6 414.394C322.8 406.594 317.7 398.794 311.9 391.494Z" fill="#BE9767"/>
<path d="M285.8 405.994C288 410.394 290.8 413.494 294.3 415.894C290.2 410.294 287.1 403.994 282.7 398.594C282.6 398.394 282.4 398.194 282.2 398.094C283.4 400.794 284.5 403.494 285.8 405.994Z" fill="#BE9767"/>
<path d="M271.5 407.493C274 414.293 276.8 422.093 283 426.393C290.1 431.393 299.9 432.693 308.4 432.093C309.6 431.993 311.1 431.893 312.6 431.693C300.5 430.193 288.4 426.493 281.3 416.993C276.9 411.093 274.5 403.893 271.7 397.093C269.9 392.693 267.7 387.293 264.1 383.693C264.4 386.093 264.8 388.493 265.3 390.993C267.7 396.193 269.5 401.893 271.5 407.493Z" fill="#BE9767"/>
<path d="M383.2 414.594C393.8 403.394 398 387.494 398.7 372.294C394.6 386.094 391.5 400.094 380.7 410.994C369.7 422.094 356.7 428.194 341.7 429.794C356.9 429.194 372.4 425.994 383.2 414.594Z" fill="#BE9767"/>
<path d="M400.2 418.494C400 414.294 399.9 410.194 400.2 405.994C397.5 411.594 394.1 416.694 389.8 421.294C388.2 422.994 386.5 424.494 384.7 425.894C390.4 424.794 396 422.294 400.2 418.494Z" fill="#BE9767"/>
<path d="M271.1 445.294C273.4 451.294 278.1 454.894 283.6 457.394C285 456.994 286.5 456.594 287.9 456.094C282 452.794 277 448.994 273.5 442.194C271.1 437.594 269.3 432.794 267.1 428.094C266.3 426.494 265.5 424.694 264.6 422.994C264.6 423.794 264.5 424.594 264.4 425.394C264.4 425.794 264.3 426.094 264.2 426.494C266.4 432.694 268.7 439.094 271.1 445.294Z" fill="#BE9767"/>
<path d="M264 452.394C262.1 448.794 260.9 444.894 259.7 440.994C259.2 443.594 259.2 446.194 260.3 448.694C258.4 451.894 257.6 456.694 260.5 458.994C261.7 459.994 263.4 460.094 265 460.094C266.7 460.094 268.3 459.994 270 459.894C267.7 457.894 265.6 455.394 264 452.394Z" fill="#BE9767"/>
<path d="M402.5 442.094C402.4 440.994 402.3 439.894 402.1 438.794C391.4 434.594 378.5 435.894 367.1 437.694C379 438.394 390.8 439.794 402.5 442.094Z" fill="#BE9767"/>
<path opacity="0.32" d="M346.5 461.794C341.3 460.294 336 459.094 330.7 458.294C336.9 461.394 343.2 464.094 350 465.294C352.7 465.794 355.4 465.994 358.1 465.894C354.3 464.394 350.4 462.994 346.5 461.794Z" fill="#BE9767"/>
<path d="M359 450.993C354.2 448.093 348.9 446.693 343.4 446.193C336.9 446.293 330.4 446.693 324.1 447.893C331.9 448.693 339.6 450.193 347.2 452.293C354.6 454.293 361.6 457.193 368.7 459.993C366 456.593 363 453.393 359 450.993Z" fill="#BE9767"/>
<path d="M266.5 373.694C280.8 378.894 291.4 393.294 298.9 405.694C303.2 412.894 308.7 417.994 316.3 421.494C316.9 421.794 317.7 422.194 318.6 422.494C319.1 422.494 319.5 422.594 320 422.594C315.8 418.594 312.4 413.594 309.2 408.994C304.7 402.394 300.8 396.394 295 390.794C287 382.994 277.2 375.994 266.2 373.494C266.4 373.594 266.4 373.694 266.5 373.694Z" fill="#BE9767"/>
<path d="M375 403.294C385.6 392.194 387.2 376.594 391.9 362.594C388.4 365.994 386.6 370.794 384.7 375.194C381.3 383.294 377.3 391.394 372.6 398.894C368.3 405.794 363.2 411.494 357.3 416.094C363.7 413.094 369.6 408.894 375 403.294Z" fill="#BE9767"/>
<path d="M340.7 307.693C346.2 316.793 348.6 327.893 350 338.193C351 345.693 351.6 353.293 351.4 360.893C355.1 351.493 355.3 341.493 352.1 331.393C349.4 322.893 347 313.893 340.7 307.693Z" fill="#BE9767"/>
<path d="M381.6 331.794C379.2 332.294 376.8 332.494 374.3 332.594C371.5 333.994 369.3 335.994 368 338.994C369.4 338.094 371 337.394 372.6 336.694C377.5 334.594 384.1 333.394 389 330.494C389.2 330.194 389.4 329.894 389.7 329.594C386.9 330.594 384.2 331.294 381.6 331.794Z" fill="#BE9767"/>
<path d="M355.8 305.694C356.7 308.794 364.7 308.194 367.1 308.094C371.8 307.894 376.5 307.194 381.1 306.394C390.8 304.494 404.1 301.594 405.5 290.394C399.2 295.194 391.8 298.494 384.4 300.594C374.8 303.394 364.8 304.194 354.8 303.794C355.2 304.294 355.6 304.894 355.8 305.694Z" fill="#BE9767"/>
<path d="M390.3 313.894C387.8 314.594 385.3 315.194 382.9 315.594C377.9 316.594 370.1 318.094 363 317.794C370.3 322.794 382.2 318.894 390.3 313.894Z" fill="#BE9767"/>
<path d="M261.1 276.094C261.7 286.394 269.9 287.194 278.5 287.194C279.5 287.194 280.5 287.194 281.5 287.194C278.1 286.194 274.7 284.994 271.6 283.294C266.6 280.694 263 276.894 260.5 272.494C260.4 272.794 260.4 273.094 260.3 273.394C260.3 273.494 260.3 273.594 260.3 273.694C260.7 274.294 261 275.094 261.1 276.094Z" fill="#BE9767"/>
<path d="M252.7 290.994C251.8 290.494 251.1 289.594 250.8 288.194C249.3 281.294 243.9 276.794 241.2 270.494C240.8 271.194 240.3 271.994 239.9 272.794C241.3 275.594 243.1 278.394 244.7 281.094C245.9 281.494 247 282.494 247.6 283.994C249.8 289.794 252.9 296.294 253.1 302.494C253.4 301.994 253.7 301.594 254.1 301.194C254.6 299.294 254.8 297.294 255 295.294C254.3 294.294 253.6 293.294 253 292.194C253 291.694 252.8 291.394 252.7 290.994Z" fill="#BE9767"/>
<path d="M279.3 313.494C288.5 314.094 297.1 317.894 306.3 318.594C307.3 318.694 308.1 318.994 308.8 319.494C309.2 319.494 309.5 319.494 309.9 319.494C302.7 315.494 293.8 314.594 285.9 313.294C278 311.894 268.4 308.494 260.5 311.494C266.2 313.794 273.2 313.094 279.3 313.494Z" fill="#BE9767"/>
<path d="M423 313.994C418.9 310.794 416.9 306.694 417.9 301.294C418.9 295.794 421.7 289.194 423.2 282.694C423.2 281.094 423.2 279.494 423.2 277.894C421.9 284.194 419.3 290.194 416.3 296.094C413.6 301.394 412.2 308.894 418.2 312.294C419.5 312.994 420.2 313.994 420.4 315.094C421 314.794 421.5 314.594 422.2 314.394C422.5 314.294 422.8 314.294 423.1 314.294C423 314.294 423 314.194 423 313.994Z" fill="#BE9767"/>
<path d="M372.2 281.293C372.7 280.793 373.3 280.393 374 280.193C379 278.393 384.2 277.193 389.2 275.493C391.1 274.893 393.3 274.193 395.5 273.293C394.9 271.993 394.9 270.493 395.8 269.193C394.6 269.793 393.3 270.393 392 270.893C387.4 273.193 382.2 274.093 377.7 276.693C375.7 277.893 373.8 277.393 372.4 276.193C368.6 277.393 365 278.893 361.8 281.393C361.6 281.593 361.4 281.693 361.2 281.793C365 281.993 368.9 282.093 372.2 281.293Z" fill="#BE9767"/>
<path d="M344 261.594C341.4 264.794 338.4 267.894 335.1 270.794C334.7 271.094 334.4 271.394 334 271.494C334 272.294 333.9 273.094 333.8 273.894C339.1 271.194 342.2 266.994 344 261.594Z" fill="#BE9767"/>
<path d="M342.7 246.394C342.5 246.394 342.3 246.394 342.2 246.394C341.9 246.794 341.5 247.094 341 247.394C337.6 249.394 336.5 252.894 336 256.494C338.6 253.494 340.8 250.194 342.7 246.394Z" fill="#BE9767"/>
<path d="M353.8 290.294C342.2 289.294 330.6 288.194 319 286.294C314.6 285.594 310.2 284.694 305.9 283.694C305.7 283.694 305.5 283.694 305.4 283.594C311.7 285.594 317.9 287.894 324.3 289.594C340.3 293.794 357.5 296.194 373.9 293.294C384.2 291.494 395.6 287.494 403.2 279.894C396.6 283.894 388.4 285.694 381 287.894C373.2 292.594 362.3 290.994 353.8 290.294Z" fill="#BE9767"/>
<path d="M274.7 253.094C277.4 255.794 279.7 258.694 281.3 261.994C281.9 256.494 280.5 251.294 277.7 246.194C277.5 246.294 277.4 246.294 277.2 246.394C275 246.894 273.1 244.994 271 244.194C269.5 243.594 268 243.694 266.5 244.194C268.7 247.494 271.8 250.094 274.7 253.094Z" fill="#BE9767"/>
<path d="M430.8 472.194V310.994C430.8 298.194 420.3 287.694 407.5 287.694H243.2C230.4 287.694 219.9 298.194 219.9 310.994V462.594C290.3 464.894 360.5 468.694 430.8 472.194Z" fill="#0E1B30"/>
<path d="M222.5 300.895C222.6 300.995 222.6 301.195 222.7 301.295C227.7 301.195 232.6 300.895 237.6 300.395C232.6 300.595 227.6 300.695 222.5 300.895Z" fill="#0E1B30"/>
<path d="M430.8 472.194V310.994C430.8 298.194 420.3 287.694 407.5 287.694H243.2C230.4 287.694 219.9 298.194 219.9 310.994V462.594C290.3 464.894 360.5 468.694 430.8 472.194Z" fill="#192344"/>
<path d="M680.3 448.594H0V494.394H680.3V448.594Z" fill="white"/>
<defs>
<linearGradient id="paint0_linear" x1="84.9225" y1="0.567383" x2="398.777" y2="482.802" gradientUnits="userSpaceOnUse">
<stop stop-color="#4BCCC4"/>
<stop offset="0.0833333" stop-color="#4BCAC6"/>
<stop offset="0.335703" stop-color="#4CC6CB"/>
<stop offset="1" stop-color="#4EB9DA"/>
</linearGradient>
</defs>
</svg>
